<svg xmlns="http://www.w3.org/2000/svg" version="1.1" xmlns:xlink="http://www.w3.org/1999/xlink" xmlns:svgjs="http://svgjs.dev/svgjs" width="110" height="110"><svg xmlns="http://www.w3.org/2000/svg" width="110" height="110" viewBox="0 0 55 49.94458747322654">
  <defs id="SvgjsDefs1157"></defs>
  <g id="SvgjsG1156" transform="matrix(0.7349293828010559,0,0,0.7349293828010559,-10.682196995209122,-11.918092358562372)" fill="black">
    <g xmlns="http://www.w3.org/2000/svg">
      <path d="M79.228,41.687C79.002,28.111,69.21,18.938,57.272,18.938H43.739c-11.833,0-21.766,8.752-21.955,22.778   c-3.602,0.553-7.249,3.745-7.249,7.67v18.1c0,4.28,3.298,7.764,7.351,7.764c0,0,0.577,0,1.97,0s1.777-1.461,1.777-1.799v-7.117   c3.708,10.386,13.641,17.841,25.286,17.841c10.863,0,20.233-6.491,24.452-15.795v5.024c0,0.329,0.536,1.846,1.999,1.846   s1.968,0,1.968,0c4.056,0,7.354-3.483,7.354-7.764v-18.1C86.691,45.41,82.899,42.147,79.228,41.687z M43.739,23.067h13.534   c9.477,0,18.106,8.049,18.106,19.139v4.104c-4.216-9.314-13.59-15.814-24.459-15.814c-11.646,0-21.579,7.457-25.286,17.844v-6.135   C25.633,32.68,33.046,23.067,43.739,23.067z M50.919,80.268c-12.646,0-22.934-10.286-22.934-22.929   c0-12.646,10.288-22.934,22.934-22.934c12.644,0,22.93,10.288,22.93,22.934C73.85,69.981,63.563,80.268,50.919,80.268z"></path>
      <path d="M50.917,48.133c-5.082,0-9.203,4.121-9.203,9.203c0,5.084,4.121,9.204,9.203,9.204c5.083,0,9.204-4.12,9.204-9.204   C60.121,52.254,56,48.133,50.917,48.133z M50.917,60.404c-1.694,0-3.067-1.373-3.067-3.068c0-1.693,1.373-3.068,3.067-3.068   s3.068,1.375,3.068,3.068C53.985,59.031,52.611,60.404,50.917,60.404z"></path>
    </g>
  </g>
</svg><style>@media (prefers-color-scheme: light) { :root { filter: none; } }
@media (prefers-color-scheme: dark) { :root { filter: invert(100%); } }
</style></svg>
